<?xml version="1.0" encoding="UTF-8" ?>
<svg xmlns="http://www.w3.org/2000/svg" xmlns:xlink="http://www.w3.org/1999/xlink" width="699pt" height="851pt" viewBox="0.00 0.00 699.39 851.46">
<g id="graph0" class="graph" transform="scale(1 1) rotate(0) translate(4 847.4626)">
<title>OptimizedUserFlow</title>
<polygon fill="#ffffff" stroke="transparent" points="-4,4 -4,-847.4626 695.3875,-847.4626 695.3875,4 -4,4"/>
<!-- StartApp -->
<g id="node1" class="node">
<title>StartApp</title>
<path fill="none" stroke="#000000" d="M639.2519,-843.4626C639.2519,-843.4626 548.6471,-843.4626 548.6471,-843.4626 542.6471,-843.4626 536.6471,-837.4626 536.6471,-831.4626 536.6471,-831.4626 536.6471,-819.4626 536.6471,-819.4626 536.6471,-813.4626 542.6471,-807.4626 548.6471,-807.4626 548.6471,-807.4626 639.2519,-807.4626 639.2519,-807.4626 645.2519,-807.4626 651.2519,-813.4626 651.2519,-819.4626 651.2519,-819.4626 651.2519,-831.4626 651.2519,-831.4626 651.2519,-837.4626 645.2519,-843.4626 639.2519,-843.4626"/>
<text text-anchor="middle" x="593.9495" y="-821.2626" font-family="Arial" font-size="14.00" fill="#000000">启动 AIBC 应用</text>
</g>
<!-- DiscoverChannels -->
<g id="node2" class="node">
<title>DiscoverChannels</title>
<path fill="none" stroke="#000000" d="M657.9559,-770.4626C657.9559,-770.4626 529.9431,-770.4626 529.9431,-770.4626 523.9431,-770.4626 517.9431,-764.4626 517.9431,-758.4626 517.9431,-758.4626 517.9431,-746.4626 517.9431,-746.4626 517.9431,-740.4626 523.9431,-734.4626 529.9431,-734.4626 529.9431,-734.4626 657.9559,-734.4626 657.9559,-734.4626 663.9559,-734.4626 669.9559,-740.4626 669.9559,-746.4626 669.9559,-746.4626 669.9559,-758.4626 669.9559,-758.4626 669.9559,-764.4626 663.9559,-770.4626 657.9559,-770.4626"/>
<text text-anchor="middle" x="593.9495" y="-748.2626" font-family="Arial" font-size="14.00" fill="#000000">浏览/搜索/选择频道</text>
</g>
<!-- StartApp&#45;&gt;DiscoverChannels -->
<g id="edge1" class="edge">
<title>StartApp-&gt;DiscoverChannels</title>
<path fill="none" stroke="#000000" d="M593.9495,-807.4176C593.9495,-799.3454 593.9495,-789.6389 593.9495,-780.6443"/>
<polygon fill="#000000" stroke="#000000" points="597.4496,-780.5529 593.9495,-770.5529 590.4496,-780.553 597.4496,-780.5529"/>
</g>
<!-- StartListening -->
<g id="node3" class="node">
<title>StartListening</title>
<path fill="none" stroke="#000000" d="M567.7229,-686.4626C567.7229,-686.4626 436.1761,-686.4626 436.1761,-686.4626 430.1761,-686.4626 424.1761,-680.4626 424.1761,-674.4626 424.1761,-674.4626 424.1761,-662.4626 424.1761,-662.4626 424.1761,-656.4626 430.1761,-650.4626 436.1761,-650.4626 436.1761,-650.4626 567.7229,-650.4626 567.7229,-650.4626 573.7229,-650.4626 579.7229,-656.4626 579.7229,-662.4626 579.7229,-662.4626 579.7229,-674.4626 579.7229,-674.4626 579.7229,-680.4626 573.7229,-686.4626 567.7229,-686.4626"/>
<text text-anchor="middle" x="501.9495" y="-664.2626" font-family="Arial" font-size="14.00" fill="#000000">开始收听选定频道</text>
</g>
<!-- DiscoverChannels&#45;&gt;StartListening -->
<g id="edge2" class="edge">
<title>DiscoverChannels-&gt;StartListening</title>
<path fill="none" stroke="#000000" d="M573.9869,-734.2358C560.9666,-722.3477 543.7964,-706.6706 529.4852,-693.6039"/>
<polygon fill="#000000" stroke="#000000" points="531.618,-690.8118 521.8732,-686.6537 526.8981,-695.9812 531.618,-690.8118"/>
<text text-anchor="middle" x="575.9275" y="-707.4626" font-family="Times,serif" font-size="10.00" fill="#000000">选择频道</text>
</g>
<!-- Listening -->
<g id="node4" class="node">
<title>Listening</title>
<ellipse fill="#dff2ff" stroke="#000000" cx="368.9495" cy="-573.0469" rx="94.9642" ry="29.3315"/>
<text text-anchor="middle" x="368.9495" y="-577.2469" font-family="Arial" font-size="14.00" fill="#000000">持续收听 AI 广播流</text>
<text text-anchor="middle" x="368.9495" y="-560.4469" font-family="Arial" font-size="14.00" fill="#000000">(内容连续生成中)</text>
</g>
<!-- StartListening&#45;&gt;Listening -->
<g id="edge3" class="edge">
<title>StartListening-&gt;Listening</title>
<path fill="none" stroke="#000000" d="M476.6202,-650.291C459.2648,-637.8401 435.7413,-620.9641 415.1086,-606.1619"/>
<polygon fill="#000000" stroke="#000000" points="416.9342,-603.1642 406.7687,-600.1788 412.8538,-608.8519 416.9342,-603.1642"/>
<text text-anchor="middle" x="471.4475" y="-623.4626" font-family="Times,serif" font-size="10.00" fill="#000000">请求播放</text>
</g>
<!-- DecisionPoint -->
<g id="node5" class="node">
<title>DecisionPoint</title>
<polygon fill="#e2e3e5" stroke="#000000" points="335.9495,-495.6313 187.6243,-477.6313 335.9495,-459.6313 484.2747,-477.6313 335.9495,-495.6313"/>
<text text-anchor="middle" x="335.9495" y="-473.4313" font-family="Arial" font-size="14.00" fill="#000000">想与 AI 主播互动吗？</text>
</g>
<!-- Listening&#45;&gt;DecisionPoint -->
<g id="edge4" class="edge">
<title>Listening-&gt;DecisionPoint</title>
<path fill="none" stroke="#000000" d="M358.7791,-543.6405C354.4885,-531.2347 349.5249,-516.8829 345.324,-504.7364"/>
<polygon fill="#000000" stroke="#000000" points="348.5825,-503.45 342.0061,-495.1433 341.967,-505.738 348.5825,-503.45"/>
<text text-anchor="middle" x="376.9815" y="-516.6313" font-family="Times,serif" font-size="10.00" fill="#000000">收听过程中</text>
</g>
<!-- StopOrSwitch -->
<g id="node9" class="node">
<title>StopOrSwitch</title>
<polygon fill="#ffe4c4" stroke="#000000" points="537.2534,-189.7442 537.2534,-204.6558 470.8815,-215.2 377.0175,-215.2 310.6456,-204.6558 310.6456,-189.7442 377.0175,-179.2 470.8815,-179.2 537.2534,-189.7442"/>
<text text-anchor="middle" x="423.9495" y="-193" font-family="Arial" font-size="14.00" fill="#000000">停止收听 / 切换频道</text>
</g>
<!-- Listening&#45;&gt;StopOrSwitch -->
<g id="edge10" class="edge">
<title>Listening-&gt;StopOrSwitch</title>
<path fill="none" stroke="#000000" d="M430.0793,-550.3838C454.1604,-538.0934 479.2873,-520.2671 492.9495,-495.6313 519.0214,-448.6183 460.8723,-289.718 435.2719,-224.9875"/>
<polygon fill="#000000" stroke="#000000" points="438.4183,-223.4288 431.4605,-215.4388 431.917,-226.0238 438.4183,-223.4288"/>
<text text-anchor="middle" x="513.449" y="-387.8313" font-family="Times,serif" font-size="10.00" fill="#000000">用户操作</text>
</g>
<!-- BehaviorTracking -->
<g id="node10" class="node">
<title>BehaviorTracking</title>
<polygon fill="none" stroke="#aaaaaa" points="237.8797,-131.0019 76.0193,-131.0019 76.0193,-89.7981 243.8797,-89.7981 243.8797,-125.0019 237.8797,-131.0019"/>
<polyline fill="none" stroke="#aaaaaa" points="237.8797,-131.0019 237.8797,-125.0019 "/>
<polyline fill="none" stroke="#aaaaaa" points="243.8797,-125.0019 237.8797,-125.0019 "/>
<text text-anchor="middle" x="159.9495" y="-114.6" font-family="Arial" font-size="14.00" fill="#000000">收听/互动行为被记录</text>
<text text-anchor="middle" x="159.9495" y="-97.8" font-family="Arial" font-size="14.00" fill="#000000">(后台)</text>
</g>
<!-- Listening&#45;&gt;BehaviorTracking -->
<g id="edge13" class="edge">
<title>Listening-&gt;BehaviorTracking</title>
<path fill="none" stroke="#000000" d="M295.8514,-554.3025C235.5819,-536.6346 159.9495,-508.3444 159.9495,-477.6313 159.9495,-477.6313 159.9495,-477.6313 159.9495,-197.2 159.9495,-178.6575 159.9495,-157.8869 159.9495,-141.3139"/>
<polygon fill="#000000" stroke="#000000" points="163.4496,-141.0948 159.9495,-131.0948 156.4496,-141.0948 163.4496,-141.0948"/>
<text text-anchor="middle" x="181.198" y="-343.0313" font-family="Times,serif" font-size="10.00" fill="#000000">数据采集</text>
</g>
<!-- DecisionPoint&#45;&gt;Listening -->
<g id="edge6" class="edge">
<title>DecisionPoint-&gt;Listening</title>
<path fill="none" stroke="#000000" d="M333.448,-495.3441C332.7635,-504.5747 332.9061,-515.9308 335.9495,-525.6313 337.0022,-528.9866 338.3855,-532.3122 339.9892,-535.5534"/>
<polygon fill="#000000" stroke="#000000" points="337.0327,-537.4356 345.0007,-544.4186 343.1264,-533.9908 337.0327,-537.4356"/>
<text text-anchor="middle" x="340.9495" y="-516.6313" font-family="Times,serif" font-size="10.00" fill="#000000">否</text>
</g>
<!-- InputInteraction -->
<g id="node6" class="node">
<title>InputInteraction</title>
<path fill="none" stroke="#000000" d="M375.3063,-411.4332C375.3063,-411.4332 296.5927,-411.4332 296.5927,-411.4332 290.5927,-411.4332 284.5927,-405.4332 284.5927,-399.4332 284.5927,-399.4332 284.5927,-382.2294 284.5927,-382.2294 284.5927,-376.2294 290.5927,-370.2294 296.5927,-370.2294 296.5927,-370.2294 375.3063,-370.2294 375.3063,-370.2294 381.3063,-370.2294 387.3063,-376.2294 387.3063,-382.2294 387.3063,-382.2294 387.3063,-399.4332 387.3063,-399.4332 387.3063,-405.4332 381.3063,-411.4332 375.3063,-411.4332"/>
<text text-anchor="middle" x="335.9495" y="-395.0313" font-family="Arial" font-size="14.00" fill="#000000">输入互动内容</text>
<text text-anchor="middle" x="335.9495" y="-378.2313" font-family="Arial" font-size="14.00" fill="#000000">(文本/语音)</text>
</g>
<!-- DecisionPoint&#45;&gt;InputInteraction -->
<g id="edge5" class="edge">
<title>DecisionPoint-&gt;InputInteraction</title>
<path fill="none" stroke="#000000" d="M335.9495,-459.2232C335.9495,-448.3373 335.9495,-434.2691 335.9495,-421.7249"/>
<polygon fill="#000000" stroke="#000000" points="339.4496,-421.6496 335.9495,-411.6496 332.4496,-421.6497 339.4496,-421.6496"/>
<text text-anchor="middle" x="341.229" y="-432.6313" font-family="Times,serif" font-size="10.00" fill="#000000">是</text>
</g>
<!-- WaitingForResponse -->
<g id="node7" class="node">
<title>WaitingForResponse</title>
<ellipse fill="#fffacd" stroke="#000000" cx="335.9495" cy="-292.6156" rx="74.643" ry="29.3315"/>
<text text-anchor="middle" x="335.9495" y="-296.8156" font-family="Arial" font-size="14.00" fill="#000000">等待 AI 回应</text>
<text text-anchor="middle" x="335.9495" y="-280.0156" font-family="Arial" font-size="14.00" fill="#000000">(系统处理中...)</text>
</g>
<!-- InputInteraction&#45;&gt;WaitingForResponse -->
<g id="edge7" class="edge">
<title>InputInteraction-&gt;WaitingForResponse</title>
<path fill="none" stroke="#000000" d="M335.9495,-370.0023C335.9495,-359.0721 335.9495,-345.3067 335.9495,-332.4269"/>
<polygon fill="#000000" stroke="#000000" points="339.4496,-332.3584 335.9495,-322.3584 332.4496,-332.3585 339.4496,-332.3584"/>
<text text-anchor="middle" x="368.112" y="-343.0313" font-family="Times,serif" font-size="10.00" fill="#000000">发送互动请求</text>
</g>
<!-- HearResponse -->
<g id="node8" class="node">
<title>HearResponse</title>
<path fill="none" stroke="#000000" d="M119.8485,-215.2C119.8485,-215.2 12.0505,-215.2 12.0505,-215.2 6.0505,-215.2 .0505,-209.2 .0505,-203.2 .0505,-203.2 .0505,-191.2 .0505,-191.2 .0505,-185.2 6.0505,-179.2 12.0505,-179.2 12.0505,-179.2 119.8485,-179.2 119.8485,-179.2 125.8485,-179.2 131.8485,-185.2 131.8485,-191.2 131.8485,-191.2 131.8485,-203.2 131.8485,-203.2 131.8485,-209.2 125.8485,-215.2 119.8485,-215.2"/>
<text text-anchor="middle" x="65.9495" y="-193" font-family="Arial" font-size="14.00" fill="#000000">收到并收听 AI 回应</text>
</g>
<!-- WaitingForResponse&#45;&gt;HearResponse -->
<g id="edge8" class="edge">
<title>WaitingForResponse-&gt;HearResponse</title>
<path fill="none" stroke="#000000" d="M280.3327,-272.9612C235.5109,-257.1215 172.5821,-234.883 126.4968,-218.5969"/>
<polygon fill="#000000" stroke="#000000" points="127.5257,-215.2484 116.9309,-215.2164 125.1932,-221.8484 127.5257,-215.2484"/>
<text text-anchor="middle" x="233.9025" y="-236.2" font-family="Times,serif" font-size="10.00" fill="#000000">接收回应音频</text>
</g>
<!-- WaitingForResponse&#45;&gt;StopOrSwitch -->
<g id="edge11" class="edge">
<title>WaitingForResponse-&gt;StopOrSwitch</title>
<path fill="none" stroke="#000000" d="M361.6393,-264.761C373.8227,-251.5509 388.2858,-235.869 400.2094,-222.9406"/>
<polygon fill="#000000" stroke="#000000" points="403.0555,-225.0172 407.2624,-215.2934 397.9098,-220.2714 403.0555,-225.0172"/>
<text text-anchor="middle" x="410.449" y="-236.2" font-family="Times,serif" font-size="10.00" fill="#000000">用户操作</text>
</g>
<!-- HearResponse&#45;&gt;Listening -->
<g id="edge9" class="edge">
<title>HearResponse-&gt;Listening</title>
<path fill="none" stroke="#000000" d="M69.9206,-215.3915C73.7436,-234.5168 78.9495,-265.5321 78.9495,-292.6156 78.9495,-477.6313 78.9495,-477.6313 78.9495,-477.6313 78.9495,-519.1193 187.4003,-545.5474 271.6601,-559.8196"/>
<polygon fill="#000000" stroke="#000000" points="271.109,-563.2759 281.5467,-561.4579 272.2534,-556.3701 271.109,-563.2759"/>
<text text-anchor="middle" x="98.5285" y="-387.8313" font-family="Times,serif" font-size="10.00" fill="#000000">继续播放</text>
</g>
<!-- HearResponse&#45;&gt;BehaviorTracking -->
<g id="edge14" class="edge">
<title>HearResponse-&gt;BehaviorTracking</title>
<path fill="none" stroke="#000000" d="M75.3334,-178.9536C80.8644,-169.3548 88.506,-157.8236 97.3425,-149.2 101.8468,-144.8042 106.9333,-140.6645 112.2117,-136.8449"/>
<polygon fill="#000000" stroke="#000000" points="114.3208,-139.643 120.6081,-131.1153 110.3752,-133.8609 114.3208,-139.643"/>
<text text-anchor="middle" x="122.253" y="-152.2" font-family="Times,serif" font-size="10.00" fill="#000000">互动记录</text>
</g>
<!-- StopOrSwitch&#45;&gt;DiscoverChannels -->
<g id="edge12" class="edge">
<title>StopOrSwitch-&gt;DiscoverChannels</title>
<path fill="none" stroke="#000000" d="M490.5548,-212.1629C556.2654,-228.9077 646.9495,-258.2431 646.9495,-292.6156 646.9495,-668.4626 646.9495,-668.4626 646.9495,-668.4626 646.9495,-690.3416 633.9298,-711.1676 620.7964,-726.6097"/>
<polygon fill="#000000" stroke="#000000" points="618.0779,-724.3982 613.9865,-734.1712 623.2794,-729.0827 618.0779,-724.3982"/>
<text text-anchor="middle" x="669.1685" y="-474.6313" font-family="Times,serif" font-size="10.00" fill="#000000">切换频道</text>
</g>
<!-- PersonalizeContent -->
<g id="node11" class="node">
<title>PersonalizeContent</title>
<polygon fill="none" stroke="#aaaaaa" points="437.9172,-41.4019 295.9818,-41.4019 295.9818,-.1981 443.9172,-.1981 443.9172,-35.4019 437.9172,-41.4019"/>
<polyline fill="none" stroke="#aaaaaa" points="437.9172,-41.4019 437.9172,-35.4019 "/>
<polyline fill="none" stroke="#aaaaaa" points="443.9172,-35.4019 437.9172,-35.4019 "/>
<text text-anchor="middle" x="369.9495" y="-25" font-family="Arial" font-size="14.00" fill="#000000">影响后续内容个性化</text>
<text text-anchor="middle" x="369.9495" y="-8.2" font-family="Arial" font-size="14.00" fill="#000000">(系统)</text>
</g>
<!-- BehaviorTracking&#45;&gt;PersonalizeContent -->
<g id="edge15" class="edge">
<title>BehaviorTracking-&gt;PersonalizeContent</title>
<path fill="none" stroke="#000000" d="M208.3914,-89.7314C239.2604,-76.5607 279.4253,-59.4236 311.9845,-45.5317"/>
<polygon fill="#000000" stroke="#000000" points="313.5637,-48.6633 321.3879,-41.5196 310.8166,-42.2248 313.5637,-48.6633"/>
<text text-anchor="middle" x="296.5525" y="-62.6" font-family="Times,serif" font-size="10.00" fill="#000000">分析行为</text>
</g>
<!-- PersonalizeContent&#45;&gt;Listening -->
<g id="edge16" class="edge">
<title>PersonalizeContent-&gt;Listening</title>
<path fill="none" stroke="#000000" stroke-dasharray="5,2" d="M443.9487,-40.2112C499.1127,-56.931 564.9495,-82.6901 564.9495,-110.4 564.9495,-477.6313 564.9495,-477.6313 564.9495,-477.6313 564.9495,-504.8988 502.8493,-531.7007 448.5593,-549.9218"/>
<polygon fill="#000000" stroke="#000000" points="447.2834,-546.657 438.8799,-553.1093 449.4729,-553.3058 447.2834,-546.657"/>
<text text-anchor="middle" x="591.753" y="-289.6156" font-family="Times,serif" font-size="10.00" fill="#000000">调整生成内容</text>
</g>
</g>
</svg>